<?xml version="1.0" encoding="utf-8"?>
<!-- Generator: Adobe Illustrator 24.3.0, SVG Export Plug-In . SVG Version: 6.00 Build 0)  -->
<svg version="1.1" id="Capa_1" xmlns="http://www.w3.org/2000/svg" xmlns:xlink="http://www.w3.org/1999/xlink" x="0px" y="0px"
	 viewBox="0 0 876.7 939.8" style="enable-background:new 0 0 876.7 939.8;" xml:space="preserve">
<style type="text/css">
	.st0{fill:#FCA00D;}
</style>
<g>
	<path class="st0" d="M775,247.9l-47.2,30l0,0L657.9,322l-9.2,6c-0.4-0.1-0.8-0.2-1,0L490.7,431.9c-4.7,3.3-5.9,9.2-4.4,14.4
		c0,0,0.2,0.2,0.3,0.3c0,0.2,0.2,0.2,0.1,0.4c1.2,1.7,2.9,3,4.9,3.8c0.7,0.3,1.5,0.5,2,0.6l160,24.3l80,10.5l92.9,12.1
		c14.9,2,28-7.9,32.8-22.6c16.3-63.6,7-149.1-39.1-210.4C807.6,248.5,791.1,237.7,775,247.9z"/>
	<path class="st0" d="M485.9,787.4l-22.4-116.5L429.3,511c-0.2-0.9-0.5-1.5-0.8-2.2c-0.3-0.7-0.7-1.4-1.2-2
		c-0.8-1.8-2.2-3.1-3.7-4.2c-4.9-1.2-10.6,0.2-13.2,5.3l-74.2,146.8l-5,9.6l-11.3,22l-4.1,8.2l-31.4,63.7L259,810.2
		c-8.4,17.2,2,34.2,19.6,44.6c67.9,39.6,132.4,41.7,199.5,23.9c13.5-5.9,21.7-19.9,18.9-34.7L485.9,787.4z"/>
	<path class="st0" d="M698.2,720.2l-38-38.1l-54.8-54.8L469,496.2c-4-3.8-9.2-3.3-12.7-0.4c-0.3,0.3-0.3,0.7-0.6,0.9
		c-0.9,1.6-1.3,3.6-1.1,5.6c0.1,0.4,0,0.8,0.2,1l27.4,158.5l28.6,152.3c2.8,14.6,8.4,34.3,27.7,35c58.5-8.9,120.5-29.4,159-81.3
		C708.7,753.1,711.2,733.1,698.2,720.2z"/>
	<path class="st0" d="M829.7,520.9l-172-25.3l-82.8-10.5L498,475c-3.1-0.4-5.6,0.5-7.5,2.1c0,0.2,0,0.2-0.3,0.3l-0.2,0.2
		c-1.4,1.9-2,4.4-1.7,6.9c0,0.8,0.3,1.7,0.5,2.5c0.1,0.4,0.3,0.7,0.4,1.1c0.3,0.7,0.6,1.1,0.9,1.6c0.5,0.5,0.8,1.2,1.4,1.7
		l141,140.5l99.6,95.5c13.7,13.2,33.4,9.6,47.3-3.6c50-47.5,81.2-113.2,77.7-174.2C855.4,535.2,844.4,523.1,829.7,520.9z"/>
	<path class="st0" d="M390.8,483c-0.8-0.4-1.9-0.6-2.9-0.9l-0.2,0c-1.8-0.2-3.6-0.1-5.6,0.5l-159.8,50l-9.8,2.8l-22.3,6.5l-8.3,2.5
		L118,564.3l-51.9,16.1c-17.2,5.4-21.8,24-17.2,43.4c13.7,56.1,40.4,96.7,76.9,128.6c15.6,15.3,32.7,28.2,50.2,38.1
		c14.4,11.6,34.6,8.6,43.9-6.5l28.2-45.6l40.8-66.2l58.8-99.6l44.8-74.9C395.6,492.3,394.2,486.5,390.8,483z"/>
	<path class="st0" d="M387.8,449c0.1-0.2,0-0.3,0.1-0.4c-0.4-2-1.4-3.9-2.9-5.5c-0.5-0.6-1.1-1.1-1.6-1.4l-132.9-88.8l-67.1-43
		l-77.9-49.8c-12.5-8.1-28.1-4.7-38.3,6.3c-30,37.2-52.1,91.5-54.3,147.4c-5.6,36.7-3.9,75.2,7.9,110.7c6.6,19.5,18.4,34.4,36,29.3
		l51.8-15.1l76.7-22.1l10.1-3c0.3,0.2,0.6,0.4,0.9,0.3l182-53.5c5.5-0.9,9-5.7,9.6-10.9C388,449.3,388,449.1,387.8,449z"/>
	<path class="st0" d="M544.8,129.4l-33.9,113.6l-43.5,157.5c-0.2,0.9-0.3,1.6-0.3,2.3s0,1.5,0.1,2.4c-0.1,2,0.5,3.7,1.3,5.5
		c3.7,3.4,9.5,4.9,14.1,1.7l133-93.5l8.8-6.1l20.1-13.9l7.4-5.2l57-41l46.4-33.3c15.3-11.1,14-31.1,3.3-48.8
		C717,102.7,661.2,69.6,593.8,52.8c-14.6-1.3-28.3,7-32.6,21.5L544.8,129.4z"/>
	<path class="st0" d="M326.8,85.7l16,52l23.1,74.8l59.8,181.7c1.7,5.3,6.6,7.3,11,6.5c0.4-0.2,0.6-0.5,0.9-0.5
		c1.5-1,2.8-2.5,3.5-4.4c0.1-0.4,0.3-0.7,0.3-1l48.8-153l44.9-148.1c4.2-14.3,8.3-34.3-8.3-44.3C471.1,28.9,407.1,17,349.3,44
		C332.7,51.7,321.3,68.1,326.8,85.7z"/>
	<path class="st0" d="M126.7,232.8l138.7,95.9l67.5,44.7l62.6,41.9c2.5,1.7,5,2,7.3,1.4c0.1-0.2,0.1-0.2,0.4-0.2l0.3,0
		c2-1.1,3.6-2.9,4.3-5.2c0.3-0.7,0.5-1.6,0.6-2.4c0.1-0.4,0-0.7,0.1-1.1c0-0.7,0-1.2-0.1-1.7c-0.2-0.6-0.2-1.3-0.5-2.1l-64.7-182.5
		L295.9,95.9c-6.4-17.4-25-22.7-42.5-17.3c-62.7,19.6-116.6,63.2-138.6,117.5C110.3,209.4,114.9,224.6,126.7,232.8z"/>
</g>
</svg>
