<?xml version="1.0" encoding="utf-8"?>
<!-- Generator: Adobe Illustrator 24.3.0, SVG Export Plug-In . SVG Version: 6.00 Build 0)  -->
<svg version="1.1" id="Capa_1" xmlns="http://www.w3.org/2000/svg" xmlns:xlink="http://www.w3.org/1999/xlink" x="0px" y="0px"
	 viewBox="0 0 1465 1236" style="enable-background:new 0 0 1465 1236;" xml:space="preserve">
<style type="text/css">
	.st0{fill:#F5CE00;}
	.st1{fill:#FDF7E3;}
	.st2{fill:#F8DD80;}
	.st3{fill:#F7D972;}
	.st4{fill:#FBEEBE;}
	.st5{fill:#6D7738;}
</style>
<path class="st0" d="M700,1235.9c-2.7,0-5.3,0-8,0c-5.3-1-7.4-4.6-7.9-9.5c-2.2-19.5-4.9-38.9-7.2-58.4c-2.4-19.7-5-39.3-7.5-58.9
	c-2.5-20-5-39.9-7.5-59.9c-2.4-19.6-5.1-39.3-7.5-58.9c-2.5-20-4.9-39.9-7.5-59.9c-2.6-19.6-4.6-39.3-7.5-58.9
	c-4-26.8-7.3-53.7-10.6-80.6c-3.1-25.2-6.4-50.5-9.5-75.7c-3.1-25.1-6.3-50.2-9.5-75.2c-3.2-25.2-6.4-50.5-9.5-75.7
	c-2.8-22.6-5.6-45.2-8.4-67.8c-2.8-22.6-5.7-45.2-8.5-67.8c-2.6-20.1-4.9-40.3-7.4-60.4c-2.8-22.8-5.7-45.5-8.5-68.3
	c-2.5-20.1-4.9-40.3-7.4-60.4c-2.9-22.9-5.7-45.9-8.6-68.8c-2.8-22.3-5.6-44.6-8.3-66.8c-2.9-23.1-5.7-46.2-8.7-69.3
	c-1.1-8.2-2-16.5-3.1-24.8c-0.6-4.8,1.5-7.1,6.4-7.4c14.9-1,29.9-1.6,44.9-1.5c12,0,24.1,0,36.1,0c37.8-0.5,74.8,4.9,111.6,12.9
	c51.6,11.3,101,28.9,147.8,53.6c27,14.2,52.3,31,76.5,49.6c22.5,17.3,42.5,37.3,62.3,57.5c9.1,9.3,16.7,19.8,25.5,29.4
	c11.2,12.1,22.6,23.9,32.8,36.9c1.6,2,3.2,3.9,2.6,6.7c-1,2-2.9,2.6-4.8,3.2c-26.9,8.1-52.4,19.5-77.2,32.5
	c-26.9,14.1-52,31-75.7,50c-17.7,14.2-34.4,29.5-49.9,46c-25.2,26.9-47.6,56-67,87.4c-24.1,38.8-42.9,80.1-56.3,123.7
	c-8,26.1-13.7,52.7-16.7,80c-1.2,10.6-1.3,21.2-2.5,31.8c-0.4,3.9,1.5,3.7,4.2,2.6c14.8-5.9,29.7-11.9,44.5-17.9
	c58.6-23.7,117.6-46.6,176.2-70.4c35.6-14.5,71.1-29.4,106-45.5c22.5-10.4,44.9-21.2,66.9-32.6c21.3-11,42.7-21.8,61.9-36.4
	c1.9-1.4,3.8-2.8,6.4-1.6c3.6,6.7,4.1,14.3,5.5,21.6c4.3,21.7,7.6,43.5,9.3,65.6c0.8,10.4,1.3,20.9,2,31.3
	c0.8,11.7,1.1,23.3,0.7,34.9c-1,28.2-3,56.3-7.5,84.3c-5,31.1-12.4,61.6-22.1,91.5c-6.9,21.2-15.2,41.9-24.5,62.2
	c-14.4,31.4-31.5,61.3-51,89.7c-13.5,19.8-28.2,38.6-43.9,56.8c-13.7,15.7-28.3,30.6-43.3,44.9c-21.4,20.5-44.4,39.1-68.6,56.2
	c-24.5,17.3-50.1,32.7-76.8,46.5c-31.2,16.1-64.2,27.5-98,36.6c-18.6,5-37.4,9.5-56.5,12.2C712.5,1234.9,706.2,1234.8,700,1235.9z"
	/>
<path class="st0" d="M0.9,573.9c2.5-29.3,9.7-57.4,22.3-84c2.8-5.9,6.2-11.4,10.3-16.5c13.2-16.2,29.4-21,49.4-15
	c131.2,39.2,261.4,81.8,391.3,125c5.7,1.9,11.4,3.7,17.1,5.6c5.2,1.7,9.8,4.3,13.1,8.7c6.3,8.3,3.2,17.9-6.6,21.1
	c-36.8,12.2-73.7,24.1-110.4,36.7C286.5,690.2,183.9,720,81.9,751.9c-18.4,5.8-37,0.3-48.4-13.7c-1.6-1.9-2.9-4.1-3.8-6.4
	c-15-35.2-25-71.6-28.5-109.7c-0.1-1.1,0.2-2.4-1-3.1c0-1,0-2,0-3c0.8-2.7,0.8-5.3,0-8c0-7,0-14,0-21c1.1-2.4,0.3-4.9,0.5-7.3
	C0.7,577.8,0.2,575.8,0.9,573.9z"/>
<path class="st1" d="M582,1c0-0.3,0-0.6,0-0.8c12.7,0,25.3,0,38,0c0,0.3,0,0.6,0,0.8C607.4,1,594.7,1,582,1z"/>
<path class="st2" d="M0.1,608c1.3,2.7,1.7,5.3,0,8C0.1,613.3,0.1,610.7,0.1,608z"/>
<path class="st3" d="M0.9,579.8c0.1,2.4,0.7,4.9-0.8,7.2c0-2.3,0-4.7,0-7C0.3,579.5,0.6,579.4,0.9,579.8z"/>
<path class="st4" d="M0.9,579.8c-0.3,0-0.6,0.1-0.8,0.2c0-2,0-4,0-6c0.3-0.1,0.6-0.1,0.8-0.1C0.9,575.9,0.9,577.9,0.9,579.8z"/>
<path class="st5" d="M1077.1,246.8c57.3-14.2,115.6-16.4,174.1-11.5c73.2,6,143.7,23.1,211.1,52.4c0.5,0.2,0.9,0.5,1.3,0.7
	c-0.3,1.1-1.2,1.5-2,2c-71.1,45.9-136.6,99-200.6,154.1c-22.3,19.2-44.9,38.2-68.5,55.9c-34.9,25.6-73.9,43.7-112.6,62.3
	C1001.8,600.2,920.8,631,840.4,663c-36.5,14.5-72.9,29.3-109.4,43.9c-6,2.4-5.9,2.3-5.6-4.3C730.4,591,772.9,494,842,407.8
	c48-60,106.8-106.7,176.7-139C1037.6,260.1,1056.9,252.3,1077.1,246.8z"/>
<path class="st0" d="M598.2,905.1c-0.3,85.5-2.5,165.3-4,245.1c-0.3,15.1-7.6,26.6-19.1,35.7c-12.5,9.9-27.4,14-42.8,16.7
	c-81.5,14.7-155.8-2.1-222.2-51.9c-3.9-2.9-7.4-6.2-11.3-9c-20.3-14.7-20.8-39.9-11.6-57.3c1.4-2.6,3-5.2,4.7-7.7
	C384,938.7,477.7,801.6,573.7,666c1.4-2,2.9-4.1,4.6-5.9c3-3.1,6.5-5.5,11.1-3.8c4.9,1.8,8,5.3,8.7,10.6c0.3,2.3,0.2,4.7,0.2,7
	C598.2,752.9,598.2,831.9,598.2,905.1z"/>
<path class="st0" d="M48.9,818.5c0.1-17.8,13.4-34.9,33.1-41.4c14.2-4.7,28.6-8.8,42.9-13.2C254.7,723.8,385,685.7,515.8,649
	c14.7-4.1,29.2-9.1,43.8-13.6c2.9-0.9,5.7-1.7,8.8-1.6c4.9,0.2,8.9,2.3,11,6.6c1.9,3.9-0.1,7.6-2.6,10.6
	c-6.3,7.5-12.9,14.8-19.4,22.2C506.1,731.4,454.7,789.5,403.6,848c-51.9,59.5-103.4,119.3-155.2,178.9c-13.6,15.6-30.5,22-51,17.2
	c-2.8-0.7-5.3-2-7.7-3.5c-64.8-41-108.3-98-129-172.1c-4-14.2-8.8-28.3-11-43C49.3,823.2,49.1,820.8,48.9,818.5z"/>
<path class="st0" d="M245.9,146.3c0.1-10.2,3.1-19.1,10.5-26.6c42.4-43.5,93.3-71.4,152.8-83.5c21.3-4.3,42.8-6.8,64.5-5
	c23.3,1.9,39.6,17.2,43,40.2c1.7,11.4,2.9,22.8,4.4,34.2c4.5,35,8.9,70,13.5,105c5.4,40.9,10.9,81.8,16.5,122.7
	c5.5,40.4,11,80.8,16.6,121.2c3.1,22.6,6.2,45.2,9.3,67.8c0.4,3,0.1,6-1.3,8.7c-3.5,6.5-9.6,7.9-15.4,3.3c-1.4-1.1-2.6-2.6-3.8-4
	C458,412.4,358.9,295,258.9,178.4C251,169.1,245.7,158.9,245.9,146.3z"/>
<path class="st0" d="M63,386.6c2.6-41.7,16.6-83.3,42.8-120.6c20.8-29.6,47.6-52.6,78-72.1c19.8-12.7,45-6.8,58.3,8.8
	c8.7,10.1,17.5,20.1,26.2,30.2c43.4,50.1,87.2,99.9,130.2,150.3c45.7,53.6,90.6,107.9,135.9,161.9c4.7,5.6,5.7,9.9,3.4,13.5
	c-3.1,4.7-8.7,6.4-15.6,4.5c-61.5-17.2-123-34.6-184.6-51.6c-80.7-22.2-160.6-47-240.9-70.7C74.1,434.1,62.7,416.9,63,386.6z"/>
</svg>
